<?xml version="1.0" encoding="utf-8"?>
<svg version="1.1" x="0px" y="0px" viewBox="0 0 1000 1000" enable-background="new 0 0 1000 1000" xmlns="http://www.w3.org/2000/svg">
  <g>
    <g transform="translate(0.000000,511.000000) scale(0.100000,-0.100000)">
      <path d="M4731.7,4556.7C3517.1,4310,2514.6,4105.6,2503,4105.6c-11.6,0-61.7,67.5-109.9,150.4c-106,185.1-241,323.9-337.4,350.9c-42.4,11.6-322,19.3-680.6,19.3c-734.6,0-757.7-3.9-925.4-171.6c-187-187-171.6,111.8-171.6-3327.7c0-3364.3-11.6-3107.9,138.8-3277.5c42.4-48.2,123.4-111.8,177.4-140.7l98.3-52.1h1152.9h1154.9l55.9,63.6c65.6,73.3,75.2,179.3,25.1,252.6c-69.4,98.3-79,98.3-1259,98.3c-1068.1,0-1100.9,1.9-1120.1,36.6c-13.5,27-17.3,680.6-15.4,2035.9l5.8,1999.3l3686.3,1.9l3688.2,3.9v-196.7c0-108,7.7-217.9,17.4-242.9c54-138.8,227.5-177.4,331.6-73.3l55.9,55.9l1.9,316.2c0,173.5,0,549.5-1.9,834.8c-1.9,472.4-5.8,528.3-40.5,607.3c-52.1,115.7-160,225.6-277.6,281.5c-90.6,42.4-119.5,46.3-437.6,46.3c-339.3,0-343.2,0-352.8,44.3c-5.8,23.1-54,269.9-106,547.5c-52.1,279.6-106,524.4-119.5,545.6c-27,40.5-129.2,98.3-173.5,94.5C6950.8,5007.9,5946.3,4805.5,4731.7,4556.7z M6813.9,4533.6c0-21.2,283.4-1525,347-1841.2c11.6-50.1,19.3-100.3,19.3-109.9c0-11.6-1045-19.3-2805.2-19.3H1569.9l-9.6,44.3c-25.1,111.8-144.6,848.3-138.8,854.1c9.6,9.6,5300,1083.5,5350.1,1085.4C6794.6,4549,6813.9,4541.3,6813.9,4533.6z M2024.9,4119.1c25.1-54,42.4-100.3,40.5-102.2c-1.9-1.9-208.2-44.3-456.9-94.5c-248.7-50.1-482-102.2-514.8-115.7c-38.6-17.4-75.2-52.1-94.5-92.5c-30.8-63.6-28.9-86.8,57.8-586.1c48.2-287.3,88.7-530.2,88.7-541.7c0-17.4-69.4-23.1-231.4-23.1H683v786.6c0,827.1,1.9,840.6,86.8,856c21.2,3.8,302.7,7.7,622.7,9.6l586.1,1.9L2024.9,4119.1z M8044,3349.9c17.4-17.4,23.1-133,23.1-404.9v-381.7h-229.4c-202.4,0-231.3,3.9-241,34.7c-5.8,17.4-36.6,175.4-69.4,350.9c-32.8,175.4-63.6,341.3-69.4,372.1l-11.6,52.1h287.3C7932.1,3373,8028.5,3365.3,8044,3349.9z" style="fill: rgb(0, 150, 136);"/>
      <path d="M6387.8,1329.3C5337.1,1234.9,4377,567.8,3902.7-396.2c-194.7-395.2-269.9-663.2-312.3-1104.7c-75.2-798.2,225.6-1652.3,804-2292.3c428-472.4,1027.6-813.6,1675.4-954.3c165.8-36.6,252.5-42.4,589.9-42.4c364.4,0,412.6,3.9,626.6,54c291.1,67.5,449.2,125.3,705.6,252.6c615,304.6,1102.8,792.4,1405.5,1407.4c214,435.7,302.7,769.2,322,1214.6c36.6,856-285.3,1667.7-910,2294.3c-231.4,229.4-478.1,410.7-782.7,566.8c-372.1,194.7-723,295-1151,329.7C6628.8,1350.5,6626.9,1350.5,6387.8,1329.3z M7093.5,895.6c271.8-42.4,499.3-115.7,751.9-239.1c755.8-368.2,1262.8-1043,1428.6-1891.3c48.2-248.7,48.2-750,0-992.9c-214-1091.2-981.3-1874-2070.6-2115c-271.9-59.8-815.5-59.8-1097,0c-709.5,154.2-1285.9,537.9-1671.5,1118.2c-296.9,445.4-439.6,933.1-439.6,1498c1.9,742.3,260.3,1380.4,767.3,1887.5c393.3,391.4,856,630.4,1424.7,732.6C6393.6,930.3,6873.7,932.2,7093.5,895.6z" style="fill: rgb(0, 150, 136);"/>
      <path d="M6547.9,596.7c-34.7-21.2-71.3-61.7-81-88.7c-28.9-73.3-25-2273,1.9-2327c57.8-111.8,28.9-109.9,944.7-109.9h840.6l50.1,46.3c100.3,92.5,88.7,239.1-23.1,314.3c-65.5,44.3-71.3,44.3-746.1,44.3h-682.5v1012.2V500.3l-52.1,57.8C6729.1,637.2,6634.6,650.7,6547.9,596.7z" style="fill: rgb(0, 150, 136);"/>
    </g>
  </g>
</svg>