<?xml version="1.0" standalone="no"?>
<!DOCTYPE svg PUBLIC "-//W3C//DTD SVG 20010904//EN"
 "http://www.w3.org/TR/2001/REC-SVG-20010904/DTD/svg10.dtd">
<svg version="1.0" xmlns="http://www.w3.org/2000/svg"
 width="500.000000pt" height="500.000000pt" viewBox="0 0 500.000000 500.000000"
 preserveAspectRatio="xMidYMid meet">

<g transform="translate(0.000000,500.000000) scale(0.100000,-0.100000)"
fill="#2f2e41" stroke="none">
<path d="M1428 4440 c-49 -15 -99 -52 -126 -94 l-27 -41 -5 -1655 -5 -1655
-90 -5 c-99 -6 -132 -19 -182 -72 -42 -44 -63 -105 -63 -188 0 -116 43 -201
122 -238 42 -21 58 -21 1283 -23 l1240 -3 40 21 c93 49 125 111 125 243 0 99
-11 136 -55 188 -38 46 -79 65 -155 71 l-65 6 -3 573 -2 572 70 0 70 0 0 -394
0 -394 48 -41 c54 -47 187 -116 252 -130 73 -17 164 -13 234 10 117 39 238
160 286 287 101 265 -74 726 -482 1269 l-69 91 -2 694 -2 693 -202 3 -203 2 0
28 c0 47 -55 128 -107 159 l-48 28 -925 2 c-509 1 -937 -2 -952 -7z m1690
-273 c53 -29 101 -87 117 -141 22 -72 21 -442 -1 -515 -19 -65 -84 -135 -140
-150 -51 -14 -1364 -15 -1414 -1 -47 13 -106 63 -133 113 -21 40 -22 53 -22
292 0 249 0 251 26 300 27 54 86 102 140 115 19 5 340 8 714 7 634 -2 682 -3
713 -20z m592 -742 l0 -634 76 -98 c333 -426 545 -891 505 -1108 -12 -65 -61
-146 -115 -192 -92 -77 -209 -84 -339 -20 l-77 38 -2 67 c0 37 0 232 1 433 2
241 0 369 -7 373 -6 3 -59 9 -119 12 -59 3 -123 7 -140 10 l-33 5 0 874 0 875
125 0 125 0 0 -635z m-460 -455 l0 -100 -855 0 -855 0 0 100 0 100 855 0 855
0 0 -100z"/>
</g>
<path d="M969.147,748.5876H230.853a1.19069,1.19069,0,0,1,0-2.38137H969.147a1.19068,1.19068,0,0,1,0,2.38137Z" transform="translate(-229.66231 -151.4124)" fill="#3f3d56"/>
</svg>
