<svg id="visual" viewBox="0 900 600" style="width:100%" xmlns="http://www.w3.org/2000/svg" xmlns:xlink="http://www.w3.org/1999/xlink" version="1.1"><path d="M0 357L129 393L257 444L386 387L514 370L643 401L771 401L900 401L900 601L771 601L643 601L514 601L386 601L257 601L129 601L0 601Z" fill="#6fede1"></path><path d="M0 432L129 443L257 408L386 402L514 480L643 438L771 431L900 421L900 601L771 601L643 601L514 601L386 601L257 601L129 601L0 601Z" fill="#59d7ca"></path><path d="M0 490L129 481L257 443L386 458L514 476L643 495L771 484L900 440L900 601L771 601L643 601L514 601L386 601L257 601L129 601L0 601Z" fill="#43c1b3"></path><path d="M0 495L129 503L257 516L386 496L514 535L643 490L771 534L900 514L900 601L771 601L643 601L514 601L386 601L257 601L129 601L0 601Z" fill="#2aab9d"></path><path d="M0 532L129 561L257 565L386 546L514 563L643 562L771 543L900 568L900 601L771 601L643 601L514 601L386 601L257 601L129 601L0 601Z" fill="#009688"></path></svg>