<svg id="visual" viewBox="0 0 1376 768" width="1376" height="768" xmlns="http://www.w3.org/2000/svg" xmlns:xlink="http://www.w3.org/1999/xlink" version="1.1"><g><g transform="translate(389 429)"><path d="M0 -148.6L128.7 -74.3L128.7 74.3L0 148.6L-128.7 74.3L-128.7 -74.3Z" stroke="#009688" fill="none" stroke-width="2"></path></g><g transform="translate(912 706)"><path d="M0 -104L90.1 -52L90.1 52L0 104L-90.1 52L-90.1 -52Z" stroke="#009688" fill="none" stroke-width="2"></path></g><g transform="translate(1130 89)"><path d="M0 -71L61.5 -35.5L61.5 35.5L0 71L-61.5 35.5L-61.5 -35.5Z" stroke="#009688" fill="none" stroke-width="2"></path></g><g transform="translate(21 718)"><path d="M0 -33L28.6 -16.5L28.6 16.5L0 33L-28.6 16.5L-28.6 -16.5Z" stroke="#009688" fill="none" stroke-width="2"></path></g><g transform="translate(637 216)"><path d="M0 -72L62.4 -36L62.4 36L0 72L-62.4 36L-62.4 -36Z" stroke="#009688" fill="none" stroke-width="2"></path></g><g transform="translate(1166 513)"><path d="M0 -126L109.1 -63L109.1 63L0 126L-109.1 63L-109.1 -63Z" stroke="#009688" fill="none" stroke-width="2"></path></g><g transform="translate(15 302)"><path d="M0 -95L82.3 -47.5L82.3 47.5L0 95L-82.3 47.5L-82.3 -47.5Z" stroke="#009688" fill="none" stroke-width="2"></path></g><g transform="translate(569 666)"><path d="M0 -29L25.1 -14.5L25.1 14.5L0 29L-25.1 14.5L-25.1 -14.5Z" stroke="#009688" fill="none" stroke-width="2"></path></g><g transform="translate(370 83)"><path d="M0 -93L80.5 -46.5L80.5 46.5L0 93L-80.5 46.5L-80.5 -46.5Z" stroke="#009688" fill="none" stroke-width="2"></path></g><g transform="translate(1354 749)"><path d="M0 -36L31.2 -18L31.2 18L0 36L-31.2 18L-31.2 -18Z" stroke="#009688" fill="none" stroke-width="2"></path></g><g transform="translate(910 353)"><path d="M0 -142L123 -71L123 71L0 142L-123 71L-123 -71Z" stroke="#009688" fill="none" stroke-width="2"></path></g></g></svg>