<svg id="visual" viewBox="0 0 900 600" width="900" height="600" xmlns="http://www.w3.org/2000/svg" xmlns:xlink="http://www.w3.org/1999/xlink" version="1.1"><g><g transform="translate(680 24)"><path d="M0 -103.3L98.2 -31.9L60.7 83.6L-60.7 83.6L-98.2 -31.9Z" fill="#009688"></path></g><g transform="translate(285 388)"><path d="M0 -79L75.1 -24.4L46.4 63.9L-46.4 63.9L-75.1 -24.4Z" fill="#009688"></path></g><g transform="translate(346 108)"><path d="M0 -99L94.2 -30.6L58.2 80.1L-58.2 80.1L-94.2 -30.6Z" fill="#009688"></path></g><g transform="translate(528 416)"><path d="M0 -60L57.1 -18.5L35.3 48.5L-35.3 48.5L-57.1 -18.5Z" fill="#009688"></path></g><g transform="translate(825 255)"><path d="M0 -60L57.1 -18.5L35.3 48.5L-35.3 48.5L-57.1 -18.5Z" fill="#009688"></path></g><g transform="translate(83 499)"><path d="M0 -70L66.6 -21.6L41.1 56.6L-41.1 56.6L-66.6 -21.6Z" fill="#009688"></path></g><g transform="translate(817 476)"><path d="M0 -81L77 -25L47.6 65.5L-47.6 65.5L-77 -25Z" fill="#009688"></path></g><g transform="translate(157 13)"><path d="M0 -66L62.8 -20.4L38.8 53.4L-38.8 53.4L-62.8 -20.4Z" fill="#009688"></path></g><g transform="translate(350 589)"><path d="M0 -49L46.6 -15.1L28.8 39.6L-28.8 39.6L-46.6 -15.1Z" fill="#009688"></path></g><g transform="translate(7 227)"><path d="M0 -35L33.3 -10.8L20.6 28.3L-20.6 28.3L-33.3 -10.8Z" fill="#009688"></path></g><g transform="translate(546 203)"><path d="M0 -83L78.9 -25.6L48.8 67.1L-48.8 67.1L-78.9 -25.6Z" fill="#009688"></path></g><g transform="translate(886 52)"><path d="M0 -37L35.2 -11.4L21.7 29.9L-21.7 29.9L-35.2 -11.4Z" fill="#009688"></path></g></g></svg>